<mxfile host="app.diagrams.net" agent="Mozilla/5.0 (Windows NT 10.0; Win64; x64) AppleWebKit/537.36 (KHTML, like Gecko) Chrome/131.0.0.0 Safari/537.36" version="26.0.1">
  <diagram name="Page-1" id="03018318-947c-dd8e-b7a3-06fadd420f32">
    <mxGraphModel dx="3354" dy="1258" grid="1" gridSize="10" guides="1" tooltips="1" connect="1" arrows="1" fold="1" page="1" pageScale="1" pageWidth="1100" pageHeight="850" background="none" math="0" shadow="0">
      <root>
        <mxCell id="0" />
        <mxCell id="1" parent="0" />
        <mxCell id="677b7b8949515195-1" value="" style="whiteSpace=wrap;html=1;rounded=0;shadow=0;labelBackgroundColor=none;strokeColor=#000000;strokeWidth=1;fillColor=none;fontFamily=Verdana;fontSize=12;fontColor=#000000;align=center;comic=1;" parent="1" vertex="1">
          <mxGeometry x="20" y="70" width="1060" height="570" as="geometry" />
        </mxCell>
        <mxCell id="ZITR6kG3QC0zVZXMq7Wq-1" value="&lt;font style=&quot;font-size: 18px;&quot;&gt;fourthwallacademy.com/Schedule/1&lt;/font&gt;" style="html=1;strokeWidth=1;shadow=0;dashed=0;shape=mxgraph.ios7ui.url;fillColor=#e0e0e0;strokeColor=#c0c0c0;buttonText=;strokeColor2=#222222;fontColor=#222222;fontSize=8;spacingTop=2;align=center;whiteSpace=wrap;" parent="1" vertex="1">
          <mxGeometry x="25" y="20" width="1050" height="40" as="geometry" />
        </mxCell>
        <mxCell id="ZITR6kG3QC0zVZXMq7Wq-2" value="" style="whiteSpace=wrap;html=1;rounded=0;shadow=0;labelBackgroundColor=none;strokeWidth=1;fillColor=none;fontFamily=Verdana;fontSize=12;align=center;comic=1;" parent="1" vertex="1">
          <mxGeometry x="30" y="90" width="1040" height="50" as="geometry" />
        </mxCell>
        <mxCell id="ZITR6kG3QC0zVZXMq7Wq-4" value="&lt;font style=&quot;font-size: 17px;&quot;&gt;Apply&lt;/font&gt;" style="rounded=1;fillColor=#0057D8;strokeColor=none;html=1;whiteSpace=wrap;fontColor=#ffffff;align=center;verticalAlign=middle;fontStyle=0;fontSize=12;sketch=0;" parent="1" vertex="1">
          <mxGeometry x="530" y="98.5" width="86" height="33" as="geometry" />
        </mxCell>
        <mxCell id="ZITR6kG3QC0zVZXMq7Wq-5" value="&lt;font style=&quot;font-size: 16px;&quot;&gt;From&lt;/font&gt;" style="text;html=1;align=center;verticalAlign=middle;whiteSpace=wrap;rounded=0;" parent="1" vertex="1">
          <mxGeometry x="60" y="100" width="70" height="30" as="geometry" />
        </mxCell>
        <mxCell id="ZITR6kG3QC0zVZXMq7Wq-7" value="&lt;font style=&quot;font-size: 14px;&quot; face=&quot;Helvetica&quot;&gt;01-09-2022&lt;/font&gt;" style="rounded=1;arcSize=9;fillColor=#F7F8F9;align=left;spacingLeft=5;strokeColor=#DEE1E6;html=1;strokeWidth=2;fontColor=#596780;fontSize=12;sketch=1;hachureGap=4;pointerEvents=0;fontFamily=Architects Daughter;fontSource=https%3A%2F%2Ffonts.googleapis.com%2Fcss%3Ffamily%3DArchitects%2BDaughter;" parent="1" vertex="1">
          <mxGeometry x="120" y="98.5" width="150" height="33" as="geometry" />
        </mxCell>
        <mxCell id="ZITR6kG3QC0zVZXMq7Wq-8" value="" style="shape=mxgraph.gmdl.calendar;fillColor=#5A6881;strokeColor=none;sketch=0;hachureGap=4;pointerEvents=0;fontFamily=Architects Daughter;fontSource=https%3A%2F%2Ffonts.googleapis.com%2Fcss%3Ffamily%3DArchitects%2BDaughter;fontSize=20;" parent="ZITR6kG3QC0zVZXMq7Wq-7" vertex="1">
          <mxGeometry x="1" y="0.5" width="18" height="18" relative="1" as="geometry">
            <mxPoint x="-29" y="-9" as="offset" />
          </mxGeometry>
        </mxCell>
        <mxCell id="ZITR6kG3QC0zVZXMq7Wq-9" value="&lt;font style=&quot;font-size: 16px;&quot;&gt;To&lt;/font&gt;" style="text;html=1;align=center;verticalAlign=middle;whiteSpace=wrap;rounded=0;" parent="1" vertex="1">
          <mxGeometry x="300" y="100" width="70" height="30" as="geometry" />
        </mxCell>
        <mxCell id="ZITR6kG3QC0zVZXMq7Wq-10" value="&lt;font style=&quot;font-size: 14px;&quot; face=&quot;Helvetica&quot;&gt;01-12-2022&lt;/font&gt;" style="rounded=1;arcSize=9;fillColor=#F7F8F9;align=left;spacingLeft=5;strokeColor=#DEE1E6;html=1;strokeWidth=2;fontColor=#596780;fontSize=12;sketch=1;hachureGap=4;pointerEvents=0;fontFamily=Architects Daughter;fontSource=https%3A%2F%2Ffonts.googleapis.com%2Fcss%3Ffamily%3DArchitects%2BDaughter;" parent="1" vertex="1">
          <mxGeometry x="350" y="98.5" width="150" height="33" as="geometry" />
        </mxCell>
        <mxCell id="ZITR6kG3QC0zVZXMq7Wq-11" value="" style="shape=mxgraph.gmdl.calendar;fillColor=#5A6881;strokeColor=none;sketch=0;hachureGap=4;pointerEvents=0;fontFamily=Architects Daughter;fontSource=https%3A%2F%2Ffonts.googleapis.com%2Fcss%3Ffamily%3DArchitects%2BDaughter;fontSize=20;" parent="ZITR6kG3QC0zVZXMq7Wq-10" vertex="1">
          <mxGeometry x="1" y="0.5" width="18" height="18" relative="1" as="geometry">
            <mxPoint x="-29" y="-9" as="offset" />
          </mxGeometry>
        </mxCell>
        <mxCell id="ZITR6kG3QC0zVZXMq7Wq-12" value="" style="shape=table;startSize=0;container=1;collapsible=0;childLayout=tableLayout;fontSize=16;" parent="1" vertex="1">
          <mxGeometry x="30" y="160" width="1000" height="460" as="geometry" />
        </mxCell>
        <mxCell id="ZITR6kG3QC0zVZXMq7Wq-13" value="" style="shape=tableRow;horizontal=0;startSize=0;swimlaneHead=0;swimlaneBody=0;strokeColor=inherit;top=0;left=0;bottom=0;right=0;collapsible=0;dropTarget=0;fillColor=none;points=[[0,0.5],[1,0.5]];portConstraint=eastwest;fontSize=16;" parent="ZITR6kG3QC0zVZXMq7Wq-12" vertex="1">
          <mxGeometry width="1000" height="57" as="geometry" />
        </mxCell>
        <mxCell id="ZITR6kG3QC0zVZXMq7Wq-14" value="" style="shape=partialRectangle;html=1;whiteSpace=wrap;connectable=0;overflow=hidden;top=0;left=0;bottom=0;right=0;pointerEvents=1;fontSize=16;" parent="ZITR6kG3QC0zVZXMq7Wq-13" vertex="1">
          <mxGeometry width="125" height="57" as="geometry">
            <mxRectangle width="125" height="57" as="alternateBounds" />
          </mxGeometry>
        </mxCell>
        <mxCell id="ZITR6kG3QC0zVZXMq7Wq-15" value="9:00" style="shape=partialRectangle;html=1;whiteSpace=wrap;connectable=0;overflow=hidden;top=0;left=0;bottom=0;right=0;pointerEvents=1;fontSize=16;" parent="ZITR6kG3QC0zVZXMq7Wq-13" vertex="1">
          <mxGeometry x="125" width="124" height="57" as="geometry">
            <mxRectangle width="124" height="57" as="alternateBounds" />
          </mxGeometry>
        </mxCell>
        <mxCell id="ZITR6kG3QC0zVZXMq7Wq-16" value="10:00" style="shape=partialRectangle;html=1;whiteSpace=wrap;connectable=0;overflow=hidden;top=0;left=0;bottom=0;right=0;pointerEvents=1;fontSize=16;" parent="ZITR6kG3QC0zVZXMq7Wq-13" vertex="1">
          <mxGeometry x="249" width="125" height="57" as="geometry">
            <mxRectangle width="125" height="57" as="alternateBounds" />
          </mxGeometry>
        </mxCell>
        <mxCell id="ZITR6kG3QC0zVZXMq7Wq-41" value="11:00" style="shape=partialRectangle;html=1;whiteSpace=wrap;connectable=0;overflow=hidden;top=0;left=0;bottom=0;right=0;pointerEvents=1;fontSize=16;" parent="ZITR6kG3QC0zVZXMq7Wq-13" vertex="1">
          <mxGeometry x="374" width="126" height="57" as="geometry">
            <mxRectangle width="126" height="57" as="alternateBounds" />
          </mxGeometry>
        </mxCell>
        <mxCell id="ZITR6kG3QC0zVZXMq7Wq-48" value="12:00" style="shape=partialRectangle;html=1;whiteSpace=wrap;connectable=0;overflow=hidden;top=0;left=0;bottom=0;right=0;pointerEvents=1;fontSize=16;" parent="ZITR6kG3QC0zVZXMq7Wq-13" vertex="1">
          <mxGeometry x="500" width="125" height="57" as="geometry">
            <mxRectangle width="125" height="57" as="alternateBounds" />
          </mxGeometry>
        </mxCell>
        <mxCell id="ZITR6kG3QC0zVZXMq7Wq-55" value="13:00" style="shape=partialRectangle;html=1;whiteSpace=wrap;connectable=0;overflow=hidden;top=0;left=0;bottom=0;right=0;pointerEvents=1;fontSize=16;" parent="ZITR6kG3QC0zVZXMq7Wq-13" vertex="1">
          <mxGeometry x="625" width="125" height="57" as="geometry">
            <mxRectangle width="125" height="57" as="alternateBounds" />
          </mxGeometry>
        </mxCell>
        <mxCell id="ZITR6kG3QC0zVZXMq7Wq-62" value="14:00" style="shape=partialRectangle;html=1;whiteSpace=wrap;connectable=0;overflow=hidden;top=0;left=0;bottom=0;right=0;pointerEvents=1;fontSize=16;" parent="ZITR6kG3QC0zVZXMq7Wq-13" vertex="1">
          <mxGeometry x="750" width="125" height="57" as="geometry">
            <mxRectangle width="125" height="57" as="alternateBounds" />
          </mxGeometry>
        </mxCell>
        <mxCell id="ZITR6kG3QC0zVZXMq7Wq-69" value="15:00" style="shape=partialRectangle;html=1;whiteSpace=wrap;connectable=0;overflow=hidden;top=0;left=0;bottom=0;right=0;pointerEvents=1;fontSize=16;" parent="ZITR6kG3QC0zVZXMq7Wq-13" vertex="1">
          <mxGeometry x="875" width="125" height="57" as="geometry">
            <mxRectangle width="125" height="57" as="alternateBounds" />
          </mxGeometry>
        </mxCell>
        <mxCell id="ZITR6kG3QC0zVZXMq7Wq-17" value="" style="shape=tableRow;horizontal=0;startSize=0;swimlaneHead=0;swimlaneBody=0;strokeColor=inherit;top=0;left=0;bottom=0;right=0;collapsible=0;dropTarget=0;fillColor=none;points=[[0,0.5],[1,0.5]];portConstraint=eastwest;fontSize=16;" parent="ZITR6kG3QC0zVZXMq7Wq-12" vertex="1">
          <mxGeometry y="57" width="1000" height="59" as="geometry" />
        </mxCell>
        <mxCell id="ZITR6kG3QC0zVZXMq7Wq-18" value="&lt;b&gt;Thursday&lt;/b&gt;&lt;div&gt;&lt;font style=&quot;font-size: 14px;&quot;&gt;01-09-2022&lt;/font&gt;&lt;/div&gt;" style="shape=partialRectangle;html=1;whiteSpace=wrap;connectable=0;strokeColor=#666666;overflow=hidden;fillColor=#f5f5f5;top=0;left=0;bottom=0;right=0;pointerEvents=1;fontSize=16;fontColor=#333333;" parent="ZITR6kG3QC0zVZXMq7Wq-17" vertex="1">
          <mxGeometry width="125" height="59" as="geometry">
            <mxRectangle width="125" height="59" as="alternateBounds" />
          </mxGeometry>
        </mxCell>
        <mxCell id="ZITR6kG3QC0zVZXMq7Wq-19" value="English Literature" style="shape=partialRectangle;html=1;whiteSpace=wrap;connectable=0;strokeColor=#666666;overflow=hidden;fillColor=#f5f5f5;top=0;left=0;bottom=0;right=0;pointerEvents=1;fontSize=16;fontColor=#333333;" parent="ZITR6kG3QC0zVZXMq7Wq-17" vertex="1">
          <mxGeometry x="125" width="124" height="59" as="geometry">
            <mxRectangle width="124" height="59" as="alternateBounds" />
          </mxGeometry>
        </mxCell>
        <mxCell id="ZITR6kG3QC0zVZXMq7Wq-20" value="Team Dynamics" style="shape=partialRectangle;html=1;whiteSpace=wrap;connectable=0;strokeColor=#666666;overflow=hidden;fillColor=#f5f5f5;top=0;left=0;bottom=0;right=0;pointerEvents=1;fontSize=16;fontColor=#333333;" parent="ZITR6kG3QC0zVZXMq7Wq-17" vertex="1">
          <mxGeometry x="249" width="125" height="59" as="geometry">
            <mxRectangle width="125" height="59" as="alternateBounds" />
          </mxGeometry>
        </mxCell>
        <mxCell id="ZITR6kG3QC0zVZXMq7Wq-42" value="Chemistry" style="shape=partialRectangle;html=1;whiteSpace=wrap;connectable=0;strokeColor=#666666;overflow=hidden;fillColor=#f5f5f5;top=0;left=0;bottom=0;right=0;pointerEvents=1;fontSize=16;fontColor=#333333;" parent="ZITR6kG3QC0zVZXMq7Wq-17" vertex="1">
          <mxGeometry x="374" width="126" height="59" as="geometry">
            <mxRectangle width="126" height="59" as="alternateBounds" />
          </mxGeometry>
        </mxCell>
        <mxCell id="ZITR6kG3QC0zVZXMq7Wq-49" value="Team Dynamics" style="shape=partialRectangle;html=1;whiteSpace=wrap;connectable=0;strokeColor=#666666;overflow=hidden;fillColor=#f5f5f5;top=0;left=0;bottom=0;right=0;pointerEvents=1;fontSize=16;fontColor=#333333;" parent="ZITR6kG3QC0zVZXMq7Wq-17" vertex="1">
          <mxGeometry x="500" width="125" height="59" as="geometry">
            <mxRectangle width="125" height="59" as="alternateBounds" />
          </mxGeometry>
        </mxCell>
        <mxCell id="ZITR6kG3QC0zVZXMq7Wq-56" value="Calculus" style="shape=partialRectangle;html=1;whiteSpace=wrap;connectable=0;strokeColor=#666666;overflow=hidden;fillColor=#f5f5f5;top=0;left=0;bottom=0;right=0;pointerEvents=1;fontSize=16;fontColor=#333333;" parent="ZITR6kG3QC0zVZXMq7Wq-17" vertex="1">
          <mxGeometry x="625" width="125" height="59" as="geometry">
            <mxRectangle width="125" height="59" as="alternateBounds" />
          </mxGeometry>
        </mxCell>
        <mxCell id="ZITR6kG3QC0zVZXMq7Wq-63" value="Tactical Analysis" style="shape=partialRectangle;html=1;whiteSpace=wrap;connectable=0;strokeColor=#666666;overflow=hidden;fillColor=#f5f5f5;top=0;left=0;bottom=0;right=0;pointerEvents=1;fontSize=16;fontColor=#333333;" parent="ZITR6kG3QC0zVZXMq7Wq-17" vertex="1">
          <mxGeometry x="750" width="125" height="59" as="geometry">
            <mxRectangle width="125" height="59" as="alternateBounds" />
          </mxGeometry>
        </mxCell>
        <mxCell id="ZITR6kG3QC0zVZXMq7Wq-70" value="Spanish" style="shape=partialRectangle;html=1;whiteSpace=wrap;connectable=0;strokeColor=#666666;overflow=hidden;fillColor=#f5f5f5;top=0;left=0;bottom=0;right=0;pointerEvents=1;fontSize=16;fontColor=#333333;" parent="ZITR6kG3QC0zVZXMq7Wq-17" vertex="1">
          <mxGeometry x="875" width="125" height="59" as="geometry">
            <mxRectangle width="125" height="59" as="alternateBounds" />
          </mxGeometry>
        </mxCell>
        <mxCell id="ZITR6kG3QC0zVZXMq7Wq-21" value="" style="shape=tableRow;horizontal=0;startSize=0;swimlaneHead=0;swimlaneBody=0;strokeColor=inherit;top=0;left=0;bottom=0;right=0;collapsible=0;dropTarget=0;fillColor=none;points=[[0,0.5],[1,0.5]];portConstraint=eastwest;fontSize=16;" parent="ZITR6kG3QC0zVZXMq7Wq-12" vertex="1">
          <mxGeometry y="116" width="1000" height="57" as="geometry" />
        </mxCell>
        <mxCell id="ZITR6kG3QC0zVZXMq7Wq-22" value="&lt;b&gt;Friday&lt;/b&gt;&lt;div&gt;&lt;span style=&quot;color: rgb(51, 51, 51); font-size: 14px;&quot;&gt;02-09-2022&lt;/span&gt;&lt;b&gt;&lt;/b&gt;&lt;/div&gt;" style="shape=partialRectangle;html=1;whiteSpace=wrap;connectable=0;overflow=hidden;top=0;left=0;bottom=0;right=0;pointerEvents=1;fontSize=16;" parent="ZITR6kG3QC0zVZXMq7Wq-21" vertex="1">
          <mxGeometry width="125" height="57" as="geometry">
            <mxRectangle width="125" height="57" as="alternateBounds" />
          </mxGeometry>
        </mxCell>
        <mxCell id="ZITR6kG3QC0zVZXMq7Wq-23" value="English Literature" style="shape=partialRectangle;html=1;whiteSpace=wrap;connectable=0;overflow=hidden;top=0;left=0;bottom=0;right=0;pointerEvents=1;fontSize=16;" parent="ZITR6kG3QC0zVZXMq7Wq-21" vertex="1">
          <mxGeometry x="125" width="124" height="57" as="geometry">
            <mxRectangle width="124" height="57" as="alternateBounds" />
          </mxGeometry>
        </mxCell>
        <mxCell id="ZITR6kG3QC0zVZXMq7Wq-24" value="Team Dynamics" style="shape=partialRectangle;html=1;whiteSpace=wrap;connectable=0;overflow=hidden;top=0;left=0;bottom=0;right=0;pointerEvents=1;fontSize=16;" parent="ZITR6kG3QC0zVZXMq7Wq-21" vertex="1">
          <mxGeometry x="249" width="125" height="57" as="geometry">
            <mxRectangle width="125" height="57" as="alternateBounds" />
          </mxGeometry>
        </mxCell>
        <mxCell id="ZITR6kG3QC0zVZXMq7Wq-43" value="Chemistry" style="shape=partialRectangle;html=1;whiteSpace=wrap;connectable=0;overflow=hidden;top=0;left=0;bottom=0;right=0;pointerEvents=1;fontSize=16;" parent="ZITR6kG3QC0zVZXMq7Wq-21" vertex="1">
          <mxGeometry x="374" width="126" height="57" as="geometry">
            <mxRectangle width="126" height="57" as="alternateBounds" />
          </mxGeometry>
        </mxCell>
        <mxCell id="ZITR6kG3QC0zVZXMq7Wq-50" value="Team Dynamics" style="shape=partialRectangle;html=1;whiteSpace=wrap;connectable=0;overflow=hidden;top=0;left=0;bottom=0;right=0;pointerEvents=1;fontSize=16;" parent="ZITR6kG3QC0zVZXMq7Wq-21" vertex="1">
          <mxGeometry x="500" width="125" height="57" as="geometry">
            <mxRectangle width="125" height="57" as="alternateBounds" />
          </mxGeometry>
        </mxCell>
        <mxCell id="ZITR6kG3QC0zVZXMq7Wq-57" value="Calculus" style="shape=partialRectangle;html=1;whiteSpace=wrap;connectable=0;overflow=hidden;top=0;left=0;bottom=0;right=0;pointerEvents=1;fontSize=16;" parent="ZITR6kG3QC0zVZXMq7Wq-21" vertex="1">
          <mxGeometry x="625" width="125" height="57" as="geometry">
            <mxRectangle width="125" height="57" as="alternateBounds" />
          </mxGeometry>
        </mxCell>
        <mxCell id="ZITR6kG3QC0zVZXMq7Wq-64" value="Tactical Analysis" style="shape=partialRectangle;html=1;whiteSpace=wrap;connectable=0;overflow=hidden;top=0;left=0;bottom=0;right=0;pointerEvents=1;fontSize=16;" parent="ZITR6kG3QC0zVZXMq7Wq-21" vertex="1">
          <mxGeometry x="750" width="125" height="57" as="geometry">
            <mxRectangle width="125" height="57" as="alternateBounds" />
          </mxGeometry>
        </mxCell>
        <mxCell id="ZITR6kG3QC0zVZXMq7Wq-71" value="Spanish" style="shape=partialRectangle;html=1;whiteSpace=wrap;connectable=0;overflow=hidden;top=0;left=0;bottom=0;right=0;pointerEvents=1;fontSize=16;" parent="ZITR6kG3QC0zVZXMq7Wq-21" vertex="1">
          <mxGeometry x="875" width="125" height="57" as="geometry">
            <mxRectangle width="125" height="57" as="alternateBounds" />
          </mxGeometry>
        </mxCell>
        <mxCell id="ZITR6kG3QC0zVZXMq7Wq-25" style="shape=tableRow;horizontal=0;startSize=0;swimlaneHead=0;swimlaneBody=0;strokeColor=inherit;top=0;left=0;bottom=0;right=0;collapsible=0;dropTarget=0;fillColor=none;points=[[0,0.5],[1,0.5]];portConstraint=eastwest;fontSize=16;" parent="ZITR6kG3QC0zVZXMq7Wq-12" vertex="1">
          <mxGeometry y="173" width="1000" height="57" as="geometry" />
        </mxCell>
        <mxCell id="ZITR6kG3QC0zVZXMq7Wq-26" value="&lt;b&gt;Saturday&lt;/b&gt;&lt;div&gt;&lt;span style=&quot;font-size: 14px;&quot;&gt;03-09-2022&lt;/span&gt;&lt;b&gt;&lt;/b&gt;&lt;/div&gt;" style="shape=partialRectangle;html=1;whiteSpace=wrap;connectable=0;strokeColor=#666666;overflow=hidden;fillColor=#f5f5f5;top=0;left=0;bottom=0;right=0;pointerEvents=1;fontSize=16;fontColor=#333333;" parent="ZITR6kG3QC0zVZXMq7Wq-25" vertex="1">
          <mxGeometry width="125" height="57" as="geometry">
            <mxRectangle width="125" height="57" as="alternateBounds" />
          </mxGeometry>
        </mxCell>
        <mxCell id="ZITR6kG3QC0zVZXMq7Wq-27" style="shape=partialRectangle;html=1;whiteSpace=wrap;connectable=0;strokeColor=#666666;overflow=hidden;fillColor=#f5f5f5;top=0;left=0;bottom=0;right=0;pointerEvents=1;fontSize=16;fontColor=#333333;" parent="ZITR6kG3QC0zVZXMq7Wq-25" vertex="1">
          <mxGeometry x="125" width="124" height="57" as="geometry">
            <mxRectangle width="124" height="57" as="alternateBounds" />
          </mxGeometry>
        </mxCell>
        <mxCell id="ZITR6kG3QC0zVZXMq7Wq-28" style="shape=partialRectangle;html=1;whiteSpace=wrap;connectable=0;strokeColor=#666666;overflow=hidden;fillColor=#f5f5f5;top=0;left=0;bottom=0;right=0;pointerEvents=1;fontSize=16;fontColor=#333333;" parent="ZITR6kG3QC0zVZXMq7Wq-25" vertex="1">
          <mxGeometry x="249" width="125" height="57" as="geometry">
            <mxRectangle width="125" height="57" as="alternateBounds" />
          </mxGeometry>
        </mxCell>
        <mxCell id="ZITR6kG3QC0zVZXMq7Wq-44" style="shape=partialRectangle;html=1;whiteSpace=wrap;connectable=0;strokeColor=#666666;overflow=hidden;fillColor=#f5f5f5;top=0;left=0;bottom=0;right=0;pointerEvents=1;fontSize=16;fontColor=#333333;" parent="ZITR6kG3QC0zVZXMq7Wq-25" vertex="1">
          <mxGeometry x="374" width="126" height="57" as="geometry">
            <mxRectangle width="126" height="57" as="alternateBounds" />
          </mxGeometry>
        </mxCell>
        <mxCell id="ZITR6kG3QC0zVZXMq7Wq-51" style="shape=partialRectangle;html=1;whiteSpace=wrap;connectable=0;strokeColor=#666666;overflow=hidden;fillColor=#f5f5f5;top=0;left=0;bottom=0;right=0;pointerEvents=1;fontSize=16;fontColor=#333333;" parent="ZITR6kG3QC0zVZXMq7Wq-25" vertex="1">
          <mxGeometry x="500" width="125" height="57" as="geometry">
            <mxRectangle width="125" height="57" as="alternateBounds" />
          </mxGeometry>
        </mxCell>
        <mxCell id="ZITR6kG3QC0zVZXMq7Wq-58" style="shape=partialRectangle;html=1;whiteSpace=wrap;connectable=0;strokeColor=#666666;overflow=hidden;fillColor=#f5f5f5;top=0;left=0;bottom=0;right=0;pointerEvents=1;fontSize=16;fontColor=#333333;" parent="ZITR6kG3QC0zVZXMq7Wq-25" vertex="1">
          <mxGeometry x="625" width="125" height="57" as="geometry">
            <mxRectangle width="125" height="57" as="alternateBounds" />
          </mxGeometry>
        </mxCell>
        <mxCell id="ZITR6kG3QC0zVZXMq7Wq-65" style="shape=partialRectangle;html=1;whiteSpace=wrap;connectable=0;strokeColor=#666666;overflow=hidden;fillColor=#f5f5f5;top=0;left=0;bottom=0;right=0;pointerEvents=1;fontSize=16;fontColor=#333333;" parent="ZITR6kG3QC0zVZXMq7Wq-25" vertex="1">
          <mxGeometry x="750" width="125" height="57" as="geometry">
            <mxRectangle width="125" height="57" as="alternateBounds" />
          </mxGeometry>
        </mxCell>
        <mxCell id="ZITR6kG3QC0zVZXMq7Wq-72" style="shape=partialRectangle;html=1;whiteSpace=wrap;connectable=0;strokeColor=#666666;overflow=hidden;fillColor=#f5f5f5;top=0;left=0;bottom=0;right=0;pointerEvents=1;fontSize=16;fontColor=#333333;" parent="ZITR6kG3QC0zVZXMq7Wq-25" vertex="1">
          <mxGeometry x="875" width="125" height="57" as="geometry">
            <mxRectangle width="125" height="57" as="alternateBounds" />
          </mxGeometry>
        </mxCell>
        <mxCell id="ZITR6kG3QC0zVZXMq7Wq-29" style="shape=tableRow;horizontal=0;startSize=0;swimlaneHead=0;swimlaneBody=0;strokeColor=inherit;top=0;left=0;bottom=0;right=0;collapsible=0;dropTarget=0;fillColor=none;points=[[0,0.5],[1,0.5]];portConstraint=eastwest;fontSize=16;" parent="ZITR6kG3QC0zVZXMq7Wq-12" vertex="1">
          <mxGeometry y="230" width="1000" height="58" as="geometry" />
        </mxCell>
        <mxCell id="ZITR6kG3QC0zVZXMq7Wq-30" value="&lt;b&gt;Sunday&lt;/b&gt;&lt;div&gt;&lt;span style=&quot;color: rgb(51, 51, 51); font-size: 14px;&quot;&gt;04-09-2022&lt;/span&gt;&lt;b&gt;&lt;/b&gt;&lt;/div&gt;" style="shape=partialRectangle;html=1;whiteSpace=wrap;connectable=0;overflow=hidden;top=0;left=0;bottom=0;right=0;pointerEvents=1;fontSize=16;" parent="ZITR6kG3QC0zVZXMq7Wq-29" vertex="1">
          <mxGeometry width="125" height="58" as="geometry">
            <mxRectangle width="125" height="58" as="alternateBounds" />
          </mxGeometry>
        </mxCell>
        <mxCell id="ZITR6kG3QC0zVZXMq7Wq-31" style="shape=partialRectangle;html=1;whiteSpace=wrap;connectable=0;overflow=hidden;top=0;left=0;bottom=0;right=0;pointerEvents=1;fontSize=16;" parent="ZITR6kG3QC0zVZXMq7Wq-29" vertex="1">
          <mxGeometry x="125" width="124" height="58" as="geometry">
            <mxRectangle width="124" height="58" as="alternateBounds" />
          </mxGeometry>
        </mxCell>
        <mxCell id="ZITR6kG3QC0zVZXMq7Wq-32" style="shape=partialRectangle;html=1;whiteSpace=wrap;connectable=0;overflow=hidden;top=0;left=0;bottom=0;right=0;pointerEvents=1;fontSize=16;" parent="ZITR6kG3QC0zVZXMq7Wq-29" vertex="1">
          <mxGeometry x="249" width="125" height="58" as="geometry">
            <mxRectangle width="125" height="58" as="alternateBounds" />
          </mxGeometry>
        </mxCell>
        <mxCell id="ZITR6kG3QC0zVZXMq7Wq-45" style="shape=partialRectangle;html=1;whiteSpace=wrap;connectable=0;overflow=hidden;top=0;left=0;bottom=0;right=0;pointerEvents=1;fontSize=16;" parent="ZITR6kG3QC0zVZXMq7Wq-29" vertex="1">
          <mxGeometry x="374" width="126" height="58" as="geometry">
            <mxRectangle width="126" height="58" as="alternateBounds" />
          </mxGeometry>
        </mxCell>
        <mxCell id="ZITR6kG3QC0zVZXMq7Wq-52" style="shape=partialRectangle;html=1;whiteSpace=wrap;connectable=0;overflow=hidden;top=0;left=0;bottom=0;right=0;pointerEvents=1;fontSize=16;" parent="ZITR6kG3QC0zVZXMq7Wq-29" vertex="1">
          <mxGeometry x="500" width="125" height="58" as="geometry">
            <mxRectangle width="125" height="58" as="alternateBounds" />
          </mxGeometry>
        </mxCell>
        <mxCell id="ZITR6kG3QC0zVZXMq7Wq-59" style="shape=partialRectangle;html=1;whiteSpace=wrap;connectable=0;overflow=hidden;top=0;left=0;bottom=0;right=0;pointerEvents=1;fontSize=16;" parent="ZITR6kG3QC0zVZXMq7Wq-29" vertex="1">
          <mxGeometry x="625" width="125" height="58" as="geometry">
            <mxRectangle width="125" height="58" as="alternateBounds" />
          </mxGeometry>
        </mxCell>
        <mxCell id="ZITR6kG3QC0zVZXMq7Wq-66" style="shape=partialRectangle;html=1;whiteSpace=wrap;connectable=0;overflow=hidden;top=0;left=0;bottom=0;right=0;pointerEvents=1;fontSize=16;" parent="ZITR6kG3QC0zVZXMq7Wq-29" vertex="1">
          <mxGeometry x="750" width="125" height="58" as="geometry">
            <mxRectangle width="125" height="58" as="alternateBounds" />
          </mxGeometry>
        </mxCell>
        <mxCell id="ZITR6kG3QC0zVZXMq7Wq-73" style="shape=partialRectangle;html=1;whiteSpace=wrap;connectable=0;overflow=hidden;top=0;left=0;bottom=0;right=0;pointerEvents=1;fontSize=16;" parent="ZITR6kG3QC0zVZXMq7Wq-29" vertex="1">
          <mxGeometry x="875" width="125" height="58" as="geometry">
            <mxRectangle width="125" height="58" as="alternateBounds" />
          </mxGeometry>
        </mxCell>
        <mxCell id="ZITR6kG3QC0zVZXMq7Wq-33" style="shape=tableRow;horizontal=0;startSize=0;swimlaneHead=0;swimlaneBody=0;strokeColor=inherit;top=0;left=0;bottom=0;right=0;collapsible=0;dropTarget=0;fillColor=none;points=[[0,0.5],[1,0.5]];portConstraint=eastwest;fontSize=16;" parent="ZITR6kG3QC0zVZXMq7Wq-12" vertex="1">
          <mxGeometry y="288" width="1000" height="57" as="geometry" />
        </mxCell>
        <mxCell id="ZITR6kG3QC0zVZXMq7Wq-34" value="&lt;b&gt;Monday&lt;/b&gt;&lt;div&gt;&lt;span style=&quot;font-size: 14px;&quot;&gt;05-09-2022&lt;/span&gt;&lt;b&gt;&lt;/b&gt;&lt;/div&gt;" style="shape=partialRectangle;html=1;whiteSpace=wrap;connectable=0;strokeColor=#666666;overflow=hidden;fillColor=#f5f5f5;top=0;left=0;bottom=0;right=0;pointerEvents=1;fontSize=16;fontColor=#333333;" parent="ZITR6kG3QC0zVZXMq7Wq-33" vertex="1">
          <mxGeometry width="125" height="57" as="geometry">
            <mxRectangle width="125" height="57" as="alternateBounds" />
          </mxGeometry>
        </mxCell>
        <mxCell id="ZITR6kG3QC0zVZXMq7Wq-35" value="English Literature" style="shape=partialRectangle;html=1;whiteSpace=wrap;connectable=0;strokeColor=#666666;overflow=hidden;fillColor=#f5f5f5;top=0;left=0;bottom=0;right=0;pointerEvents=1;fontSize=16;fontColor=#333333;" parent="ZITR6kG3QC0zVZXMq7Wq-33" vertex="1">
          <mxGeometry x="125" width="124" height="57" as="geometry">
            <mxRectangle width="124" height="57" as="alternateBounds" />
          </mxGeometry>
        </mxCell>
        <mxCell id="ZITR6kG3QC0zVZXMq7Wq-36" value="Team Dynamics" style="shape=partialRectangle;html=1;whiteSpace=wrap;connectable=0;strokeColor=#666666;overflow=hidden;fillColor=#f5f5f5;top=0;left=0;bottom=0;right=0;pointerEvents=1;fontSize=16;fontColor=#333333;" parent="ZITR6kG3QC0zVZXMq7Wq-33" vertex="1">
          <mxGeometry x="249" width="125" height="57" as="geometry">
            <mxRectangle width="125" height="57" as="alternateBounds" />
          </mxGeometry>
        </mxCell>
        <mxCell id="ZITR6kG3QC0zVZXMq7Wq-46" value="Chemistry" style="shape=partialRectangle;html=1;whiteSpace=wrap;connectable=0;strokeColor=#666666;overflow=hidden;fillColor=#f5f5f5;top=0;left=0;bottom=0;right=0;pointerEvents=1;fontSize=16;fontColor=#333333;" parent="ZITR6kG3QC0zVZXMq7Wq-33" vertex="1">
          <mxGeometry x="374" width="126" height="57" as="geometry">
            <mxRectangle width="126" height="57" as="alternateBounds" />
          </mxGeometry>
        </mxCell>
        <mxCell id="ZITR6kG3QC0zVZXMq7Wq-53" value="Team Dynamics" style="shape=partialRectangle;html=1;whiteSpace=wrap;connectable=0;strokeColor=#666666;overflow=hidden;fillColor=#f5f5f5;top=0;left=0;bottom=0;right=0;pointerEvents=1;fontSize=16;fontColor=#333333;" parent="ZITR6kG3QC0zVZXMq7Wq-33" vertex="1">
          <mxGeometry x="500" width="125" height="57" as="geometry">
            <mxRectangle width="125" height="57" as="alternateBounds" />
          </mxGeometry>
        </mxCell>
        <mxCell id="ZITR6kG3QC0zVZXMq7Wq-60" value="Calculus" style="shape=partialRectangle;html=1;whiteSpace=wrap;connectable=0;strokeColor=#666666;overflow=hidden;fillColor=#f5f5f5;top=0;left=0;bottom=0;right=0;pointerEvents=1;fontSize=16;fontColor=#333333;" parent="ZITR6kG3QC0zVZXMq7Wq-33" vertex="1">
          <mxGeometry x="625" width="125" height="57" as="geometry">
            <mxRectangle width="125" height="57" as="alternateBounds" />
          </mxGeometry>
        </mxCell>
        <mxCell id="ZITR6kG3QC0zVZXMq7Wq-67" value="Tactical Analysis" style="shape=partialRectangle;html=1;whiteSpace=wrap;connectable=0;strokeColor=#666666;overflow=hidden;fillColor=#f5f5f5;top=0;left=0;bottom=0;right=0;pointerEvents=1;fontSize=16;fontColor=#333333;" parent="ZITR6kG3QC0zVZXMq7Wq-33" vertex="1">
          <mxGeometry x="750" width="125" height="57" as="geometry">
            <mxRectangle width="125" height="57" as="alternateBounds" />
          </mxGeometry>
        </mxCell>
        <mxCell id="ZITR6kG3QC0zVZXMq7Wq-74" value="Spanish" style="shape=partialRectangle;html=1;whiteSpace=wrap;connectable=0;strokeColor=#666666;overflow=hidden;fillColor=#f5f5f5;top=0;left=0;bottom=0;right=0;pointerEvents=1;fontSize=16;fontColor=#333333;" parent="ZITR6kG3QC0zVZXMq7Wq-33" vertex="1">
          <mxGeometry x="875" width="125" height="57" as="geometry">
            <mxRectangle width="125" height="57" as="alternateBounds" />
          </mxGeometry>
        </mxCell>
        <mxCell id="ZITR6kG3QC0zVZXMq7Wq-37" style="shape=tableRow;horizontal=0;startSize=0;swimlaneHead=0;swimlaneBody=0;strokeColor=inherit;top=0;left=0;bottom=0;right=0;collapsible=0;dropTarget=0;fillColor=none;points=[[0,0.5],[1,0.5]];portConstraint=eastwest;fontSize=16;" parent="ZITR6kG3QC0zVZXMq7Wq-12" vertex="1">
          <mxGeometry y="345" width="1000" height="58" as="geometry" />
        </mxCell>
        <mxCell id="ZITR6kG3QC0zVZXMq7Wq-38" value="&lt;b&gt;Tuesday&lt;/b&gt;&lt;div&gt;&lt;span style=&quot;color: rgb(51, 51, 51); font-size: 14px;&quot;&gt;06-09-2022&lt;/span&gt;&lt;b&gt;&lt;/b&gt;&lt;/div&gt;" style="shape=partialRectangle;html=1;whiteSpace=wrap;connectable=0;overflow=hidden;top=0;left=0;bottom=0;right=0;pointerEvents=1;fontSize=16;" parent="ZITR6kG3QC0zVZXMq7Wq-37" vertex="1">
          <mxGeometry width="125" height="58" as="geometry">
            <mxRectangle width="125" height="58" as="alternateBounds" />
          </mxGeometry>
        </mxCell>
        <mxCell id="ZITR6kG3QC0zVZXMq7Wq-39" value="English Literature" style="shape=partialRectangle;html=1;whiteSpace=wrap;connectable=0;overflow=hidden;top=0;left=0;bottom=0;right=0;pointerEvents=1;fontSize=16;" parent="ZITR6kG3QC0zVZXMq7Wq-37" vertex="1">
          <mxGeometry x="125" width="124" height="58" as="geometry">
            <mxRectangle width="124" height="58" as="alternateBounds" />
          </mxGeometry>
        </mxCell>
        <mxCell id="ZITR6kG3QC0zVZXMq7Wq-40" value="Team Dynamics" style="shape=partialRectangle;html=1;whiteSpace=wrap;connectable=0;overflow=hidden;top=0;left=0;bottom=0;right=0;pointerEvents=1;fontSize=16;" parent="ZITR6kG3QC0zVZXMq7Wq-37" vertex="1">
          <mxGeometry x="249" width="125" height="58" as="geometry">
            <mxRectangle width="125" height="58" as="alternateBounds" />
          </mxGeometry>
        </mxCell>
        <mxCell id="ZITR6kG3QC0zVZXMq7Wq-47" value="Chemistry" style="shape=partialRectangle;html=1;whiteSpace=wrap;connectable=0;overflow=hidden;top=0;left=0;bottom=0;right=0;pointerEvents=1;fontSize=16;" parent="ZITR6kG3QC0zVZXMq7Wq-37" vertex="1">
          <mxGeometry x="374" width="126" height="58" as="geometry">
            <mxRectangle width="126" height="58" as="alternateBounds" />
          </mxGeometry>
        </mxCell>
        <mxCell id="ZITR6kG3QC0zVZXMq7Wq-54" value="Team Dynamics" style="shape=partialRectangle;html=1;whiteSpace=wrap;connectable=0;overflow=hidden;top=0;left=0;bottom=0;right=0;pointerEvents=1;fontSize=16;" parent="ZITR6kG3QC0zVZXMq7Wq-37" vertex="1">
          <mxGeometry x="500" width="125" height="58" as="geometry">
            <mxRectangle width="125" height="58" as="alternateBounds" />
          </mxGeometry>
        </mxCell>
        <mxCell id="ZITR6kG3QC0zVZXMq7Wq-61" value="Calculus" style="shape=partialRectangle;html=1;whiteSpace=wrap;connectable=0;overflow=hidden;top=0;left=0;bottom=0;right=0;pointerEvents=1;fontSize=16;" parent="ZITR6kG3QC0zVZXMq7Wq-37" vertex="1">
          <mxGeometry x="625" width="125" height="58" as="geometry">
            <mxRectangle width="125" height="58" as="alternateBounds" />
          </mxGeometry>
        </mxCell>
        <mxCell id="ZITR6kG3QC0zVZXMq7Wq-68" value="Tactical Analysis" style="shape=partialRectangle;html=1;whiteSpace=wrap;connectable=0;overflow=hidden;top=0;left=0;bottom=0;right=0;pointerEvents=1;fontSize=16;" parent="ZITR6kG3QC0zVZXMq7Wq-37" vertex="1">
          <mxGeometry x="750" width="125" height="58" as="geometry">
            <mxRectangle width="125" height="58" as="alternateBounds" />
          </mxGeometry>
        </mxCell>
        <mxCell id="ZITR6kG3QC0zVZXMq7Wq-75" value="Spanish" style="shape=partialRectangle;html=1;whiteSpace=wrap;connectable=0;overflow=hidden;top=0;left=0;bottom=0;right=0;pointerEvents=1;fontSize=16;" parent="ZITR6kG3QC0zVZXMq7Wq-37" vertex="1">
          <mxGeometry x="875" width="125" height="58" as="geometry">
            <mxRectangle width="125" height="58" as="alternateBounds" />
          </mxGeometry>
        </mxCell>
        <mxCell id="ZITR6kG3QC0zVZXMq7Wq-81" style="shape=tableRow;horizontal=0;startSize=0;swimlaneHead=0;swimlaneBody=0;strokeColor=inherit;top=0;left=0;bottom=0;right=0;collapsible=0;dropTarget=0;fillColor=none;points=[[0,0.5],[1,0.5]];portConstraint=eastwest;fontSize=16;" parent="ZITR6kG3QC0zVZXMq7Wq-12" vertex="1">
          <mxGeometry y="403" width="1000" height="57" as="geometry" />
        </mxCell>
        <mxCell id="ZITR6kG3QC0zVZXMq7Wq-82" value="&lt;b&gt;Wednesday&lt;/b&gt;&lt;div&gt;&lt;span style=&quot;color: rgb(51, 51, 51); font-size: 14px;&quot;&gt;07-09-2022&lt;/span&gt;&lt;b&gt;&lt;/b&gt;&lt;/div&gt;" style="shape=partialRectangle;html=1;whiteSpace=wrap;connectable=0;overflow=hidden;top=0;left=0;bottom=0;right=0;pointerEvents=1;fontSize=16;fillColor=#f5f5f5;fontColor=#333333;strokeColor=#666666;" parent="ZITR6kG3QC0zVZXMq7Wq-81" vertex="1">
          <mxGeometry width="125" height="57" as="geometry">
            <mxRectangle width="125" height="57" as="alternateBounds" />
          </mxGeometry>
        </mxCell>
        <mxCell id="ZITR6kG3QC0zVZXMq7Wq-83" value="English Literature" style="shape=partialRectangle;html=1;whiteSpace=wrap;connectable=0;overflow=hidden;top=0;left=0;bottom=0;right=0;pointerEvents=1;fontSize=16;fillColor=#f5f5f5;fontColor=#333333;strokeColor=#666666;" parent="ZITR6kG3QC0zVZXMq7Wq-81" vertex="1">
          <mxGeometry x="125" width="124" height="57" as="geometry">
            <mxRectangle width="124" height="57" as="alternateBounds" />
          </mxGeometry>
        </mxCell>
        <mxCell id="ZITR6kG3QC0zVZXMq7Wq-84" value="Team Dynamics" style="shape=partialRectangle;html=1;whiteSpace=wrap;connectable=0;overflow=hidden;top=0;left=0;bottom=0;right=0;pointerEvents=1;fontSize=16;fillColor=#f5f5f5;fontColor=#333333;strokeColor=#666666;" parent="ZITR6kG3QC0zVZXMq7Wq-81" vertex="1">
          <mxGeometry x="249" width="125" height="57" as="geometry">
            <mxRectangle width="125" height="57" as="alternateBounds" />
          </mxGeometry>
        </mxCell>
        <mxCell id="ZITR6kG3QC0zVZXMq7Wq-85" value="Chemistry" style="shape=partialRectangle;html=1;whiteSpace=wrap;connectable=0;overflow=hidden;top=0;left=0;bottom=0;right=0;pointerEvents=1;fontSize=16;fillColor=#f5f5f5;fontColor=#333333;strokeColor=#666666;" parent="ZITR6kG3QC0zVZXMq7Wq-81" vertex="1">
          <mxGeometry x="374" width="126" height="57" as="geometry">
            <mxRectangle width="126" height="57" as="alternateBounds" />
          </mxGeometry>
        </mxCell>
        <mxCell id="ZITR6kG3QC0zVZXMq7Wq-86" value="Team Dynamics" style="shape=partialRectangle;html=1;whiteSpace=wrap;connectable=0;overflow=hidden;top=0;left=0;bottom=0;right=0;pointerEvents=1;fontSize=16;fillColor=#f5f5f5;fontColor=#333333;strokeColor=#666666;" parent="ZITR6kG3QC0zVZXMq7Wq-81" vertex="1">
          <mxGeometry x="500" width="125" height="57" as="geometry">
            <mxRectangle width="125" height="57" as="alternateBounds" />
          </mxGeometry>
        </mxCell>
        <mxCell id="ZITR6kG3QC0zVZXMq7Wq-87" value="Calculus" style="shape=partialRectangle;html=1;whiteSpace=wrap;connectable=0;overflow=hidden;top=0;left=0;bottom=0;right=0;pointerEvents=1;fontSize=16;fillColor=#f5f5f5;fontColor=#333333;strokeColor=#666666;" parent="ZITR6kG3QC0zVZXMq7Wq-81" vertex="1">
          <mxGeometry x="625" width="125" height="57" as="geometry">
            <mxRectangle width="125" height="57" as="alternateBounds" />
          </mxGeometry>
        </mxCell>
        <mxCell id="ZITR6kG3QC0zVZXMq7Wq-88" value="Tactical Analysis" style="shape=partialRectangle;html=1;whiteSpace=wrap;connectable=0;overflow=hidden;top=0;left=0;bottom=0;right=0;pointerEvents=1;fontSize=16;fillColor=#f5f5f5;fontColor=#333333;strokeColor=#666666;" parent="ZITR6kG3QC0zVZXMq7Wq-81" vertex="1">
          <mxGeometry x="750" width="125" height="57" as="geometry">
            <mxRectangle width="125" height="57" as="alternateBounds" />
          </mxGeometry>
        </mxCell>
        <mxCell id="ZITR6kG3QC0zVZXMq7Wq-89" value="Spanish" style="shape=partialRectangle;html=1;whiteSpace=wrap;connectable=0;overflow=hidden;top=0;left=0;bottom=0;right=0;pointerEvents=1;fontSize=16;fillColor=#f5f5f5;fontColor=#333333;strokeColor=#666666;" parent="ZITR6kG3QC0zVZXMq7Wq-81" vertex="1">
          <mxGeometry x="875" width="125" height="57" as="geometry">
            <mxRectangle width="125" height="57" as="alternateBounds" />
          </mxGeometry>
        </mxCell>
        <mxCell id="ZITR6kG3QC0zVZXMq7Wq-76" value="" style="verticalLabelPosition=bottom;shadow=0;dashed=0;align=center;html=1;verticalAlign=top;strokeWidth=1;shape=mxgraph.mockup.navigation.scrollBar;strokeColor=#999999;barPos=97.879;fillColor2=#99ddff;strokeColor2=none;direction=north;" parent="1" vertex="1">
          <mxGeometry x="1046" y="160" width="20" height="430" as="geometry" />
        </mxCell>
        <mxCell id="ZITR6kG3QC0zVZXMq7Wq-77" value="&lt;font style=&quot;font-size: 16px;&quot;&gt;Student : &lt;b&gt;Solar Flare&lt;/b&gt;&lt;/font&gt;" style="text;html=1;align=center;verticalAlign=middle;whiteSpace=wrap;rounded=0;" parent="1" vertex="1">
          <mxGeometry x="880" y="100" width="180" height="30" as="geometry" />
        </mxCell>
      </root>
    </mxGraphModel>
  </diagram>
</mxfile>
